<?xml version="1.0" encoding="utf-8"?>
<!-- Generator: Adobe Illustrator 19.1.0, SVG Export Plug-In . SVG Version: 6.00 Build 0)  -->
<svg version="1.1" id="Layer_1" xmlns="http://www.w3.org/2000/svg" xmlns:xlink="http://www.w3.org/1999/xlink" x="0px" y="0px"
	 width="145.6px" height="97.2px" viewBox="0 0 145.6 97.2" style="enable-background:new 0 0 145.6 97.2;" xml:space="preserve">
<style type="text/css">
	.st0{fill:#FFFFFF;}
	.st1{opacity:0.5;fill:#939598;}
	.st2{opacity:0.5;fill:#58595B;}
	.st3{fill:none;}
	.st4{font-family:'AkzidenzGroteskBQ-XBold';}
	.st5{font-size:22.2685px;}
</style>
<path class="st0" d="M95,1.8C86.5,1.8,78.6,4,71.7,8c-6.9-4-14.8-6.2-23.3-6.2C22.7,1.8,1.8,22.6,1.8,48.3s20.9,46.6,46.6,46.6
	c8.5,0,16.4-2.3,23.3-6.2c6.9,4,14.8,6.2,23.3,6.2c25.7,0,46.6-20.9,46.6-46.6S120.7,1.8,95,1.8z"/>
<circle class="st1" cx="48.4" cy="48.3" r="46.6"/>
<circle class="st2" cx="95" cy="48.3" r="46.6"/>
<rect y="38.4" class="st3" width="145.6" height="19.8"/>
<text transform="matrix(1 0 0 1 16.1897 54.1683)" class="st0 st4 st5">StudioRoom</text>
</svg>
