<?xml version="1.0" encoding="utf-8"?>
<!-- Generator: Adobe Illustrator 19.2.0, SVG Export Plug-In . SVG Version: 6.00 Build 0)  -->
<svg version="1.1" id="Layer_1" xmlns="http://www.w3.org/2000/svg" xmlns:xlink="http://www.w3.org/1999/xlink" x="0px" y="0px"
	 width="145.6px" height="97.2px" viewBox="0 0 145.6 97.2" style="enable-background:new 0 0 145.6 97.2;" xml:space="preserve">
<style type="text/css">
	.st0{fill:#F05A29;}
</style>
<g>
	<path class="st0" d="M-85.2,48.9c-26.2,0-47.5,21.3-47.5,47.5s21.3,47.5,47.5,47.5s47.5-21.3,47.5-47.5S-59,48.9-85.2,48.9z
		 M-88.7,107.4c0,5-0.7,6.4-3.4,9.5c-3.3,3.6-10.3,4.7-15.2,0.4c-4.9-4.2-4-10.5-3.9-11.9s1.5-1.5,1.5-1.5s2.3-0.1,3.5,0
		c1.2,0.1,1.2,1.4,1.2,1.4l0,1.8c-0.3,6.7,4.9,6.6,4.9,6.6c5.6-0.7,5-5.3,5-5.8s-0.3-0.9-0.3-0.9s-14-18.4-14.9-19.7
		c-0.9-1.3-1-2.6-1-2.6c-0.4-2.5-0.2-5.4,2.8-9.3c3-3.9,9.8-5.1,14.6-1.9c4.8,3.3,4.9,7.5,5,8.6c0.1,1.1,0.1,2.7,0,4.2
		s-1.4,1.4-1.4,1.4h-3.3c-1.8,0-1.6-1.8-1.6-1.8s0-0.2,0.1-2.9c0-2.7-3-6.4-6.6-4.8c-3.6,1.6-3.3,4.4-3.3,5.2c0,0.8,0.5,1.4,0.5,1.4
		l15,19.9C-88.5,106.3-88.7,107.4-88.7,107.4z M-61.1,83l-0.1,6c-0.2,4.2-3.3,7.1-3.3,7.1c3.9,3.5,3.4,8.7,3.4,8.7v14
		c0,1.2-1.3,1.4-1.3,1.4h-3.4c-1.5-0.2-1.4-1.6-1.4-1.6s0-13.9,0-14.4c0-0.5-0.2-1.2-0.2-1.2c-0.9-3.7-4.6-3.9-4.6-3.9l-5.2,0v19.4
		c-0.1,1.4-1.5,1.6-1.5,1.6l-3.3-0.1c-1.8-0.2-1.5-1.9-1.5-1.9l0-43.5c0.4-3,3.3-2.9,3.3-2.9l5.3,0c6.6-0.6,9.3,2.2,9.3,2.2
		C-60.7,77.6-61.1,83-61.1,83z"/>
	<path class="st0" d="M-72.1,78h-5.3v14.7h5c0,0,4,0.1,5-4.3V83C-67.4,83-67.6,78.7-72.1,78z"/>
</g>
</svg>
